<svg width="82" height="106" viewBox="0 0 82 106" fill="none" xmlns="http://www.w3.org/2000/svg">
<path d="M40.8223 65.4947L35.9912 71.7399L21.4908 53L35.9878 34.2601L40.8189 40.5097L34.5767 48.5833H60.3281V57.4167H34.5767L40.8223 65.4947Z" fill="#0500FF"/>
<path fill-rule="evenodd" clip-rule="evenodd" d="M14.4251 87.3528C-0.252873 68.3788 -0.252873 37.6212 14.4251 18.6472C29.1031 -0.326843 52.8968 -0.326843 67.5748 18.6472C82.2528 37.6212 82.2528 68.3788 67.5748 87.3528C52.8968 106.327 29.1031 106.327 14.4251 87.3528ZM19.2563 81.1077C13.4895 73.653 10.2498 63.5424 10.2498 53C10.2498 42.4576 13.4895 32.3469 19.2563 24.8923C25.0231 17.4377 32.8445 13.2497 41 13.2497C49.1554 13.2497 56.9768 17.4377 62.7436 24.8923C68.5104 32.3469 71.7501 42.4576 71.7501 53C71.7501 63.5424 68.5104 73.653 62.7436 81.1077C56.9768 88.5623 49.1554 92.7502 41 92.7502C32.8445 92.7502 25.0231 88.5623 19.2563 81.1077Z" fill="#0500FF"/>
</svg>
