<svg width="83" height="59" viewBox="0 0 83 59" fill="none" xmlns="http://www.w3.org/2000/svg">
<path fill-rule="evenodd" clip-rule="evenodd" d="M26.9298 0C24.0363 0 21.7684 1.61445 20.3655 3.55073C18.9451 5.50309 18.1618 8.05082 18.1618 10.7273C18.1618 13.4091 18.9451 15.9515 20.3655 17.9038C21.7684 19.8347 24.0363 21.4545 26.9298 21.4545C29.8232 21.4545 32.0912 19.8401 33.494 17.9038C34.9144 15.9515 35.6977 13.4037 35.6977 10.7273C35.6977 8.04545 34.9144 5.50309 33.494 3.55073C32.0912 1.61982 29.8232 0 26.9298 0ZM56.1562 0C53.2628 0 50.9948 1.61445 49.5919 3.55073C48.1715 5.50309 47.3883 8.05082 47.3883 10.7273C47.3883 13.4091 48.1715 15.9515 49.5919 17.9038C50.9948 19.8347 53.2628 21.4545 56.1562 21.4545C59.0496 21.4545 61.3176 19.8401 62.7204 17.9038C64.1409 15.9515 64.9241 13.4037 64.9241 10.7273C64.9241 8.04545 64.1409 5.50309 62.7204 3.55073C61.3176 1.61982 59.0496 0 56.1562 0ZM9.39391 24.1364C6.50049 24.1364 4.23252 25.7508 2.82965 27.6871C1.40924 29.6395 0.625977 32.1872 0.625977 34.8636C0.625977 37.5455 1.40924 40.0878 2.82965 42.0402C4.23252 43.9711 6.50049 45.5909 9.39391 45.5909C12.2873 45.5909 14.5553 43.9765 15.9582 42.0402C17.3786 40.0878 18.1618 37.5401 18.1618 34.8636C18.1618 32.1818 17.3786 29.6395 15.9582 27.6871C14.5553 25.7562 12.2873 24.1364 9.39391 24.1364ZM41.543 24.1364C34.5286 24.1364 29.3322 27.5905 26.0121 31.8761C22.7328 36.0973 21.0845 41.3375 21.0845 45.5909C21.0845 50.5469 24.3286 53.9904 28.3093 56.0607C32.2256 58.0989 37.1356 59 41.543 59C45.9445 59 50.8604 58.1043 54.7767 56.0607C58.7515 53.9904 62.0015 50.5469 62.0015 45.5909C62.0015 41.3375 60.3531 36.0973 57.0739 31.8761C53.7596 27.5852 48.5632 24.1364 41.543 24.1364ZM73.692 24.1364C70.7986 24.1364 68.5307 25.7508 67.1278 27.6871C65.7074 29.6395 64.9241 32.1872 64.9241 34.8636C64.9241 37.5455 65.7074 40.0878 67.1278 42.0402C68.5307 43.9711 70.7986 45.5909 73.692 45.5909C76.5855 45.5909 78.8534 43.9765 80.2563 42.0402C81.6767 40.0878 82.46 37.5401 82.46 34.8636C82.46 32.1818 81.6767 29.6395 80.2563 27.6871C78.8534 25.7562 76.5855 24.1364 73.692 24.1364Z" fill="white"/>
</svg>
