<svg width="200" height="200" viewBox="0 0 200 200" fill="none" xmlns="http://www.w3.org/2000/svg">
<path d="M37.5001 101.042C31.6667 101.042 26.7362 99.0277 22.7084 95C18.6806 90.9722 16.6667 86.0416 16.6667 80.2083C16.6667 74.375 18.6806 69.4444 22.7084 65.4166C26.7362 61.3888 31.6667 59.375 37.5001 59.375C43.3334 59.375 48.264 61.3888 52.2917 65.4166C56.3195 69.4444 58.3334 74.375 58.3334 80.2083C58.3334 86.0416 56.3195 90.9722 52.2917 95C48.264 99.0277 43.3334 101.042 37.5001 101.042ZM75.0001 67.7083C69.1667 67.7083 64.2362 65.6944 60.2084 61.6666C56.1806 57.6388 54.1667 52.7083 54.1667 46.875C54.1667 41.0416 56.1806 36.1111 60.2084 32.0833C64.2362 28.0555 69.1667 26.0416 75.0001 26.0416C80.8334 26.0416 85.764 28.0555 89.7917 32.0833C93.8195 36.1111 95.8334 41.0416 95.8334 46.875C95.8334 52.7083 93.8195 57.6388 89.7917 61.6666C85.764 65.6944 80.8334 67.7083 75.0001 67.7083ZM125 67.7083C119.167 67.7083 114.236 65.6944 110.208 61.6666C106.181 57.6388 104.167 52.7083 104.167 46.875C104.167 41.0416 106.181 36.1111 110.208 32.0833C114.236 28.0555 119.167 26.0416 125 26.0416C130.833 26.0416 135.764 28.0555 139.792 32.0833C143.82 36.1111 145.833 41.0416 145.833 46.875C145.833 52.7083 143.82 57.6388 139.792 61.6666C135.764 65.6944 130.833 67.7083 125 67.7083ZM162.5 101.042C156.667 101.042 151.736 99.0277 147.708 95C143.681 90.9722 141.667 86.0416 141.667 80.2083C141.667 74.375 143.681 69.4444 147.708 65.4166C151.736 61.3888 156.667 59.375 162.5 59.375C168.333 59.375 173.264 61.3888 177.292 65.4166C181.32 69.4444 183.333 74.375 183.333 80.2083C183.333 86.0416 181.32 90.9722 177.292 95C173.264 99.0277 168.333 101.042 162.5 101.042ZM55.4167 184.375C49.1667 184.375 43.9223 181.981 39.6834 177.192C35.4445 172.403 33.3279 166.742 33.3334 160.208C33.3334 152.986 35.8001 146.667 40.7334 141.25C45.6667 135.833 50.5612 130.486 55.4167 125.208C59.4445 120.903 62.9167 116.217 65.8334 111.15C68.7501 106.083 72.2223 101.325 76.2501 96.875C79.3056 93.2638 82.8473 90.2777 86.8751 87.9166C90.9029 85.5555 95.2779 84.375 100 84.375C104.722 84.375 109.097 85.4861 113.125 87.7083C117.153 89.9305 120.695 92.8472 123.75 96.4583C127.639 100.903 131.078 105.694 134.067 110.833C137.056 115.972 140.561 120.764 144.583 125.208C149.445 130.486 154.339 135.833 159.267 141.25C164.195 146.667 166.661 152.986 166.667 160.208C166.667 166.736 164.547 172.397 160.308 177.192C156.07 181.986 150.828 184.381 144.583 184.375C137.083 184.375 129.653 183.75 122.292 182.5C114.931 181.25 107.5 180.625 100 180.625C92.5001 180.625 85.0695 181.25 77.7084 182.5C70.3473 183.75 62.9167 184.375 55.4167 184.375Z" fill="white"/>
</svg>
