<svg width="103" height="99" viewBox="0 0 103 99" fill="none" xmlns="http://www.w3.org/2000/svg">
<path d="M102.528 94.3492C94.5551 80.5667 82.039 70.8957 67.4957 66.7942C74.5664 63.1985 80.2205 57.3252 83.5463 50.1214C86.8722 42.9176 87.6759 34.8031 85.828 27.0864C83.98 19.3697 79.588 12.5005 73.3602 7.58652C67.1324 2.67248 59.4318 0 51.5 0C43.5682 0 35.8676 2.67248 29.6398 7.58652C23.412 12.5005 19.02 19.3697 17.1721 27.0864C15.3241 34.8031 16.1278 42.9176 19.4537 50.1214C22.7795 57.3252 28.4337 63.1985 35.5043 66.7942C20.961 70.8906 8.44487 80.5616 0.472257 94.3492C0.253339 94.6937 0.106344 95.079 0.0401152 95.4818C-0.0261138 95.8846 -0.0102072 96.2967 0.0868765 96.6932C0.18396 97.0897 0.360215 97.4625 0.605038 97.7891C0.849861 98.1157 1.15819 98.3894 1.51149 98.5937C1.86478 98.798 2.25573 98.9287 2.66082 98.9779C3.06591 99.0271 3.47676 98.9939 3.86867 98.8801C4.26058 98.7664 4.62544 98.5745 4.9413 98.316C5.25716 98.0576 5.5175 97.7379 5.70665 97.3761C15.3938 80.6323 32.5089 70.6384 51.5 70.6384C70.4911 70.6384 87.6062 80.6323 97.2934 97.3761C97.4825 97.7379 97.7428 98.0576 98.0587 98.316C98.3746 98.5745 98.7394 98.7664 99.1313 98.8801C99.5232 98.9939 99.9341 99.0271 100.339 98.9779C100.744 98.9287 101.135 98.798 101.489 98.5937C101.842 98.3894 102.15 98.1157 102.395 97.7891C102.64 97.4625 102.816 97.0897 102.913 96.6932C103.01 96.2967 103.026 95.8846 102.96 95.4818C102.894 95.079 102.747 94.6937 102.528 94.3492ZM22.252 35.3244C22.252 29.5373 23.9673 23.8801 27.1811 19.0683C30.395 14.2565 34.9629 10.5062 40.3073 8.29154C45.6516 6.07691 51.5324 5.49746 57.206 6.62647C62.8796 7.75548 68.0911 10.5422 72.1815 14.6344C76.2719 18.7265 79.0575 23.9401 80.1861 29.616C81.3146 35.2919 80.7354 41.1752 78.5217 46.5218C76.308 51.8684 72.5592 56.4382 67.7493 59.6533C62.9395 62.8685 57.2847 64.5846 51.5 64.5846C43.7458 64.5752 36.3119 61.4895 30.8288 56.0041C25.3458 50.5188 22.2613 43.0818 22.252 35.3244Z" fill="white"/>
</svg>
