<svg width="270" height="281" viewBox="0 0 270 281" fill="none" xmlns="http://www.w3.org/2000/svg">
<g clip-path="url(#clip0_1_88)">
<path d="M224.775 106.113L233.213 106.136V106.113H224.775ZM45.225 106.113H36.7875V106.136L45.225 106.113ZM214.875 124.811L208.429 130.489L209.374 131.66L210.656 132.421L214.875 124.811ZM211.815 110C210.01 108.621 207.752 108.045 205.539 108.399C203.326 108.752 201.339 110.006 200.014 111.885C198.689 113.763 198.136 116.113 198.475 118.416C198.815 120.72 200.02 122.788 201.825 124.167L211.815 110ZM68.175 124.167C69.0689 123.484 69.8247 122.625 70.3995 121.638C70.9742 120.652 71.3566 119.557 71.5248 118.416C71.693 117.276 71.6437 116.112 71.3797 114.991C71.1157 113.871 70.6422 112.815 69.9863 111.885C69.3303 110.955 68.5048 110.168 67.5567 109.57C66.6086 108.972 65.5566 108.574 64.4608 108.399C63.3649 108.224 62.2467 108.275 61.1699 108.55C60.0931 108.824 59.0789 109.317 58.185 110L68.175 124.167ZM135 66.2223C126.315 66.2223 121.388 66.7024 117.495 67.2058C113.67 67.6976 111.735 68.0488 108.068 68.0488V85.6113C113.018 85.6113 116.224 85.061 119.543 84.6395C122.805 84.218 127.035 83.7848 135 83.7848V66.2223ZM135 83.7848C142.965 83.7848 147.206 84.218 150.446 84.6395C153.776 85.061 156.971 85.6113 161.933 85.6113V68.0488C158.265 68.0488 156.33 67.6976 152.505 67.2058C146.697 66.4798 140.849 66.1513 135 66.2223V83.7848ZM161.933 85.623C164.329 85.623 166.568 84.9088 168.176 84.2883C169.931 83.6092 171.743 82.7194 173.486 81.7827C176.918 79.9445 180.9 77.4857 184.545 75.2963C188.37 73.0132 191.97 70.9291 195.199 69.407C198.664 67.7678 200.644 67.3229 201.431 67.3229V49.7604C196.841 49.7604 192.094 51.5986 188.258 53.39C184.115 55.4169 180.068 57.6479 176.13 60.0754C172.148 62.4639 168.728 64.5832 165.758 66.1638C164.295 66.9482 163.17 67.4868 162.315 67.8147C161.336 68.1893 161.336 68.0488 161.933 68.0488V85.623ZM201.431 67.3229C205.313 67.3229 209.025 68.5289 211.635 70.8705C214.02 73.0014 216.338 76.8418 216.338 84.1595H233.213C233.213 72.4512 229.253 63.4826 222.649 57.5582C216.281 51.8562 208.339 49.7604 201.431 49.7604V67.3229ZM216.338 84.1595V106.113H233.213V84.1595H216.338ZM108.068 68.0605C108.664 68.0605 108.664 68.1893 107.685 67.8264C106.508 67.3455 105.359 66.7943 104.243 66.1755C101.273 64.5832 97.8525 62.4639 93.87 60.0872C90.045 57.7923 85.815 55.3102 81.7425 53.4017C77.9175 51.5986 73.1588 49.7604 68.5688 49.7604V67.3229C69.3563 67.3229 71.3363 67.7795 74.8013 69.407C78.03 70.9291 81.6413 73.0132 85.455 75.2963C89.1 77.4857 93.0825 79.9445 96.5138 81.7827C98.2575 82.7194 100.069 83.6092 101.824 84.2883C103.433 84.9088 105.671 85.623 108.068 85.623V68.0605ZM68.5688 49.7604C61.6613 49.7604 53.7188 51.8562 47.3513 57.5582C40.7475 63.4709 36.7875 72.4512 36.7875 84.1478H53.6625C53.6625 76.8301 55.98 73.0014 58.365 70.8705C60.975 68.5289 64.6988 67.3229 68.5688 67.3229V49.7604ZM36.7875 84.1595V106.113H53.6625V84.1478L36.7875 84.1595ZM135 242.948C151.099 242.948 174.825 239.611 194.85 230.022C214.92 220.421 233.213 203.409 233.213 175.625H216.338C216.338 193.574 205.009 205.832 187.808 214.075C170.595 222.318 149.423 225.385 135 225.385V242.948ZM221.31 119.144C218.501 115.721 215.314 112.644 211.815 110L201.825 124.167C204.525 126.239 206.696 128.358 208.429 130.478L221.31 119.144ZM216.338 106.077C216.338 108.396 215.876 113.22 214.785 116.556C214.166 118.418 213.818 118.371 214.448 117.844C215.1 117.327 215.87 116.995 216.683 116.882C217.496 116.769 218.323 116.879 219.083 117.2L210.656 132.421C212.681 133.639 215.179 134.529 217.969 134.377C220.838 134.224 223.211 133.042 225.011 131.543C228.24 128.85 229.871 124.916 230.749 122.223C232.639 116.474 233.201 109.578 233.224 106.136L216.338 106.077ZM135 225.385C120.578 225.385 99.4163 222.318 82.1925 214.075C64.98 205.832 53.6625 193.574 53.6625 175.625H36.7875C36.7875 203.409 55.08 220.421 75.15 230.022C95.175 239.623 118.901 242.948 135 242.948V225.385ZM53.6625 175.625C53.6625 166.399 53.0213 158.8 53.8763 150.71C54.6638 143.158 56.7225 136.449 61.5713 130.489L48.69 119.132C41.04 128.557 38.1375 138.954 37.1025 148.801C36.1238 158.133 36.7875 168.237 36.7875 175.625H53.6625ZM61.5713 130.489C63.5228 128.116 65.7397 125.993 68.175 124.167L58.185 110C54.4725 112.833 51.3338 115.889 48.69 119.132L61.5713 130.489ZM36.7875 106.136C36.7988 109.578 37.3613 116.474 39.2513 122.223C40.1288 124.916 41.76 128.85 44.9888 131.543C46.7888 133.042 49.1625 134.224 52.02 134.377C54.8213 134.517 57.3075 133.639 59.3438 132.421L50.9175 117.2C51.6757 116.881 52.5007 116.772 53.3113 116.885C54.122 116.998 54.8905 117.329 55.5413 117.844C56.1825 118.371 55.8338 118.418 55.215 116.556C54.2413 113.153 53.719 109.628 53.6625 106.077L36.7875 106.136Z" fill="white"/>
<path d="M144.292 187.333C144.292 189.359 140.231 190.998 135.225 190.998C130.207 190.998 126.146 189.359 126.146 187.333C126.146 185.308 130.207 183.68 135.225 183.68C140.231 183.68 144.292 185.319 144.292 187.333ZM174.375 159.163C174.375 164.209 171.934 168.307 168.93 168.307C165.926 168.307 163.485 164.209 163.485 159.163C163.485 154.105 165.926 150.019 168.93 150.019C171.934 150.019 174.375 154.128 174.375 159.163ZM106.875 159.163C106.875 164.209 104.434 168.307 101.43 168.307C98.4262 168.307 95.985 164.209 95.985 159.163C95.985 154.105 98.4262 150.019 101.43 150.019C104.434 150.019 106.875 154.128 106.875 159.163Z" stroke="white" stroke-width="1.5"/>
<path d="M247.5 181.116C242.066 177.451 218.475 168.307 209.396 168.307M229.354 210.387C223.909 206.722 211.207 197.578 202.129 197.578M22.5 181.116C27.945 177.451 51.525 168.307 60.6038 168.307M40.6462 210.387C46.0912 206.722 58.7925 197.578 67.8712 197.578" stroke="white" stroke-width="1.5" stroke-linecap="round"/>
<path d="M35.9205 272L41.7159 237.091H53.5114C56.2386 237.091 58.392 237.58 59.9716 238.557C61.5625 239.534 62.6364 240.858 63.1932 242.528C63.7614 244.199 63.875 246.068 63.5341 248.136C63.1932 250.182 62.4602 252.045 61.3352 253.727C60.2216 255.409 58.7102 256.75 56.8011 257.75C54.9034 258.75 52.6023 259.25 49.8977 259.25H41.4432L42.0568 255.5H50.375C52.2386 255.5 53.7955 255.176 55.0455 254.528C56.2955 253.881 57.2727 253 57.9773 251.886C58.6818 250.773 59.1477 249.523 59.375 248.136C59.6023 246.727 59.5455 245.477 59.2045 244.386C58.875 243.284 58.1875 242.42 57.142 241.795C56.108 241.159 54.6477 240.841 52.7614 240.841H45.3295L40.1477 272H35.9205ZM76.4247 272.545C73.9134 272.545 71.8395 271.989 70.2031 270.875C68.5668 269.75 67.4247 268.182 66.777 266.17C66.1293 264.148 66.027 261.795 66.4702 259.114C66.9134 256.432 67.794 254.068 69.1122 252.023C70.4304 249.966 72.0724 248.364 74.0384 247.216C76.0043 246.057 78.1634 245.477 80.5156 245.477C81.8793 245.477 83.1918 245.705 84.4531 246.159C85.7145 246.614 86.8054 247.352 87.7259 248.375C88.6463 249.386 89.2884 250.727 89.652 252.398C90.0156 254.068 89.9929 256.125 89.5838 258.568L89.3111 260.273H69.1293L69.6747 256.795H85.7656C86.027 255.318 85.9588 254 85.5611 252.841C85.1747 251.682 84.4986 250.767 83.5327 250.097C82.5781 249.426 81.3679 249.091 79.902 249.091C78.3906 249.091 76.9815 249.5 75.6747 250.318C74.3679 251.125 73.277 252.148 72.402 253.386C71.527 254.614 70.9815 255.864 70.7656 257.136L70.2884 260.136C69.9474 262.307 69.9986 264.034 70.4418 265.318C70.8963 266.602 71.6861 267.528 72.8111 268.097C73.9361 268.653 75.3452 268.932 77.0384 268.932C78.1179 268.932 79.1122 268.784 80.0213 268.489C80.9304 268.182 81.7429 267.727 82.4588 267.125C83.1747 266.511 83.777 265.75 84.2656 264.841L87.9474 265.932C87.3224 267.25 86.4418 268.409 85.3054 269.409C84.1804 270.398 82.8622 271.17 81.3509 271.727C79.8509 272.273 78.2088 272.545 76.4247 272.545ZM109.297 245.818L108.751 249.227H95.1832L95.7287 245.818H109.297ZM100.706 239.545H104.729L100.57 264.5C100.388 265.636 100.416 266.489 100.655 267.057C100.905 267.614 101.28 267.989 101.78 268.182C102.291 268.364 102.842 268.455 103.433 268.455C103.876 268.455 104.24 268.432 104.524 268.386C104.808 268.33 105.036 268.284 105.206 268.25L105.479 271.864C105.172 271.966 104.757 272.068 104.234 272.17C103.723 272.284 103.092 272.341 102.342 272.341C101.206 272.341 100.138 272.097 99.1378 271.608C98.1378 271.119 97.3707 270.375 96.8366 269.375C96.3026 268.375 96.1605 267.114 96.4105 265.591L100.706 239.545ZM132.47 251.682L128.652 252.705C128.516 252.091 128.277 251.5 127.936 250.932C127.607 250.352 127.095 249.881 126.402 249.517C125.72 249.142 124.788 248.955 123.607 248.955C122.004 248.955 120.612 249.324 119.43 250.062C118.249 250.79 117.572 251.716 117.402 252.841C117.232 253.83 117.459 254.619 118.084 255.21C118.709 255.801 119.754 256.284 121.22 256.659L124.97 257.614C127.22 258.193 128.822 259.062 129.777 260.222C130.743 261.369 131.072 262.864 130.766 264.705C130.516 266.205 129.862 267.545 128.805 268.727C127.749 269.909 126.396 270.841 124.749 271.523C123.101 272.205 121.266 272.545 119.243 272.545C116.55 272.545 114.425 271.966 112.868 270.807C111.311 269.636 110.482 267.943 110.379 265.727L114.402 264.773C114.504 266.17 115.004 267.227 115.902 267.943C116.811 268.648 118.084 269 119.72 269C121.595 269 123.158 268.602 124.408 267.807C125.658 267 126.368 266.034 126.538 264.909C126.709 263.989 126.527 263.222 125.993 262.608C125.47 261.994 124.561 261.534 123.266 261.227L119.107 260.205C116.788 259.625 115.163 258.739 114.232 257.545C113.311 256.352 113.004 254.852 113.311 253.045C113.561 251.568 114.197 250.261 115.22 249.125C116.254 247.989 117.55 247.097 119.107 246.449C120.675 245.801 122.379 245.477 124.22 245.477C126.811 245.477 128.749 246.045 130.033 247.182C131.317 248.307 132.129 249.807 132.47 251.682ZM137.571 272H133.139L151.753 237.091H156.116L163.139 272H158.707L153.185 242.614H152.912L137.571 272ZM141.457 258.364H159.321L158.707 262.114H140.844L141.457 258.364ZM166.395 281.818L172.429 245.818H176.315L175.634 249.977H176.111C176.474 249.523 176.974 248.943 177.611 248.239C178.259 247.523 179.128 246.886 180.219 246.33C181.321 245.761 182.724 245.477 184.429 245.477C186.634 245.477 188.48 246.028 189.969 247.131C191.457 248.233 192.509 249.795 193.122 251.818C193.736 253.841 193.815 256.227 193.361 258.977C192.906 261.75 192.037 264.153 190.753 266.188C189.469 268.21 187.901 269.778 186.048 270.892C184.196 271.994 182.179 272.545 179.997 272.545C178.315 272.545 177.014 272.267 176.094 271.71C175.173 271.142 174.503 270.5 174.082 269.784C173.662 269.057 173.338 268.455 173.111 267.977H172.77L170.452 281.818H166.395ZM174.202 258.909C173.884 260.886 173.884 262.631 174.202 264.142C174.531 265.642 175.185 266.818 176.162 267.67C177.151 268.511 178.452 268.932 180.065 268.932C181.747 268.932 183.219 268.489 184.48 267.602C185.753 266.705 186.798 265.5 187.616 263.989C188.446 262.466 189.02 260.773 189.338 258.909C189.634 257.068 189.622 255.409 189.304 253.932C188.986 252.443 188.338 251.267 187.361 250.403C186.384 249.528 185.043 249.091 183.338 249.091C181.702 249.091 180.253 249.506 178.991 250.335C177.741 251.153 176.707 252.301 175.889 253.778C175.082 255.244 174.52 256.955 174.202 258.909ZM195.692 281.818L201.726 245.818H205.612L204.93 249.977H205.408C205.771 249.523 206.271 248.943 206.908 248.239C207.555 247.523 208.425 246.886 209.516 246.33C210.618 245.761 212.021 245.477 213.726 245.477C215.93 245.477 217.777 246.028 219.266 247.131C220.754 248.233 221.805 249.795 222.419 251.818C223.033 253.841 223.112 256.227 222.658 258.977C222.203 261.75 221.334 264.153 220.05 266.188C218.766 268.21 217.197 269.778 215.345 270.892C213.493 271.994 211.476 272.545 209.294 272.545C207.612 272.545 206.311 272.267 205.391 271.71C204.47 271.142 203.8 270.5 203.379 269.784C202.959 269.057 202.635 268.455 202.408 267.977H202.067L199.749 281.818H195.692ZM203.499 258.909C203.18 260.886 203.18 262.631 203.499 264.142C203.828 265.642 204.482 266.818 205.459 267.67C206.447 268.511 207.749 268.932 209.362 268.932C211.044 268.932 212.516 268.489 213.777 267.602C215.05 266.705 216.095 265.5 216.913 263.989C217.743 262.466 218.317 260.773 218.635 258.909C218.93 257.068 218.919 255.409 218.601 253.932C218.283 252.443 217.635 251.267 216.658 250.403C215.68 249.528 214.339 249.091 212.635 249.091C210.999 249.091 209.55 249.506 208.288 250.335C207.038 251.153 206.004 252.301 205.186 253.778C204.379 255.244 203.817 256.955 203.499 258.909Z" fill="#735CFF"/>
</g>
<defs>
<clipPath id="clip0_1_88">
<rect width="270" height="281" fill="white"/>
</clipPath>
</defs>
</svg>
