<svg width="46" height="48" viewBox="0 0 46 48" fill="none" xmlns="http://www.w3.org/2000/svg">
<path d="M37.5667 42L25.4917 29.4C24.5333 30.2 23.4312 30.8333 22.1854 31.3C20.9396 31.7667 19.6139 32 18.2083 32C14.7264 32 11.7798 30.7413 9.36867 28.224C6.9575 25.7067 5.75128 22.632 5.75 19C5.75 15.3667 6.95622 12.292 9.36867 9.776C11.7811 7.26 14.7277 6.00133 18.2083 6C21.6903 6 24.6375 7.25867 27.0499 9.776C29.4624 12.2933 30.6679 15.368 30.6667 19C30.6667 20.4667 30.4431 21.85 29.9958 23.15C29.5486 24.45 28.9417 25.6 28.175 26.6L40.25 39.2L37.5667 42ZM18.2083 28C20.6042 28 22.6409 27.1253 24.3187 25.376C25.9964 23.6267 26.8346 21.5013 26.8333 19C26.8333 16.5 25.9951 14.3753 24.3187 12.626C22.6422 10.8767 20.6054 10.0013 18.2083 10C15.8125 10 13.7764 10.8753 12.0999 12.626C10.4235 14.3767 9.58461 16.5013 9.58333 19C9.58333 21.5 10.4222 23.6253 12.0999 25.376C13.7776 27.1267 15.8138 28.0013 18.2083 28Z" fill="black"/>
</svg>
