<svg width="75" height="60" viewBox="0 0 75 60" fill="none" xmlns="http://www.w3.org/2000/svg">
<path d="M37.5 10C40.8152 10 43.9946 11.0536 46.3388 12.9289C48.683 14.8043 50 17.3478 50 20C50 22.6522 48.683 25.1957 46.3388 27.0711C43.9946 28.9464 40.8152 30 37.5 30C34.1848 30 31.0054 28.9464 28.6612 27.0711C26.317 25.1957 25 22.6522 25 20C25 17.3478 26.317 14.8043 28.6612 12.9289C31.0054 11.0536 34.1848 10 37.5 10ZM37.5 35C51.3125 35 62.5 39.475 62.5 45V50H12.5V45C12.5 39.475 23.6875 35 37.5 35Z" fill="white"/>
</svg>
