<svg width="302" height="282" viewBox="0 0 302 282" fill="none" xmlns="http://www.w3.org/2000/svg">
<path d="M99.8136 137.669C95.0362 137.669 90.9982 135.97 87.6995 132.571C84.4008 129.173 82.7515 125.013 82.7515 120.091C82.7515 115.169 84.4008 111.008 87.6995 107.61C90.9982 104.211 95.0362 102.512 99.8136 102.512C104.591 102.512 108.629 104.211 111.928 107.61C115.226 111.008 116.876 115.169 116.876 120.091C116.876 125.013 115.226 129.173 111.928 132.571C108.629 135.97 104.591 137.669 99.8136 137.669ZM130.525 109.543C125.748 109.543 121.71 107.844 118.411 104.446C115.113 101.047 113.463 96.8867 113.463 91.9646C113.463 87.0426 115.113 82.8823 118.411 79.4837C121.71 76.0851 125.748 74.3859 130.525 74.3859C135.303 74.3859 139.341 76.0851 142.64 79.4837C145.938 82.8823 147.588 87.0426 147.588 91.9646C147.588 96.8867 145.938 101.047 142.64 104.446C139.341 107.844 135.303 109.543 130.525 109.543ZM171.475 109.543C166.697 109.543 162.659 107.844 159.361 104.446C156.062 101.047 154.412 96.8867 154.412 91.9646C154.412 87.0426 156.062 82.8823 159.361 79.4837C162.659 76.0851 166.697 74.3859 171.475 74.3859C176.252 74.3859 180.29 76.0851 183.589 79.4837C186.887 82.8823 188.537 87.0426 188.537 91.9646C188.537 96.8867 186.887 101.047 183.589 104.446C180.29 107.844 176.252 109.543 171.475 109.543ZM202.186 137.669C197.409 137.669 193.371 135.97 190.072 132.571C186.774 129.173 185.124 125.013 185.124 120.091C185.124 115.169 186.774 111.008 190.072 107.61C193.371 104.211 197.409 102.512 202.186 102.512C206.964 102.512 211.002 104.211 214.301 107.61C217.599 111.008 219.249 115.169 219.249 120.091C219.249 125.013 217.599 129.173 214.301 132.571C211.002 135.97 206.964 137.669 202.186 137.669ZM114.487 207.984C109.368 207.984 105.073 205.964 101.602 201.923C98.1301 197.882 96.3966 193.106 96.4012 187.593C96.4012 181.499 98.4213 176.167 102.462 171.596C106.502 167.026 110.51 162.514 114.487 158.061C117.786 154.428 120.629 150.474 123.018 146.199C125.407 141.923 128.251 137.908 131.549 134.154C134.052 131.107 136.952 128.587 140.251 126.595C143.55 124.602 147.133 123.606 151 123.606C154.867 123.606 158.451 124.544 161.749 126.419C165.048 128.294 167.948 130.755 170.451 133.802C173.636 137.552 176.452 141.595 178.9 145.931C181.348 150.267 184.219 154.311 187.513 158.061C191.494 162.514 195.503 167.026 199.538 171.596C203.574 176.167 205.594 181.499 205.599 187.593C205.599 193.101 203.863 197.878 200.392 201.923C196.92 205.969 192.627 207.989 187.513 207.984C181.371 207.984 175.285 207.457 169.257 206.402C163.228 205.347 157.142 204.82 151 204.82C144.858 204.82 138.772 205.347 132.744 206.402C126.715 207.457 120.629 207.984 114.487 207.984Z" fill="white"/>
<path d="M80.5412 231.864L82.2685 221.545H84.9503L82.0412 239H79.3594L79.8594 236.045H79.6776C79.1321 236.932 78.3707 237.686 77.3935 238.307C76.4162 238.92 75.2685 239.227 73.9503 239.227C72.8594 239.227 71.9276 238.989 71.1548 238.511C70.3897 238.027 69.8442 237.299 69.5185 236.33C69.2003 235.352 69.1624 234.121 69.4048 232.636L71.2685 221.545H73.9503L72.1321 232.455C71.9276 233.727 72.1207 234.742 72.7116 235.5C73.3026 236.258 74.1548 236.636 75.2685 236.636C75.9351 236.636 76.6397 236.466 77.3821 236.125C78.1321 235.784 78.7988 235.261 79.3821 234.557C79.973 233.852 80.3594 232.955 80.5412 231.864ZM85.8622 245.545L89.8849 221.545H92.4759L92.0213 224.318H92.3395C92.5819 224.015 92.9152 223.629 93.3395 223.159C93.7713 222.682 94.3509 222.258 95.0781 221.886C95.813 221.508 96.7486 221.318 97.8849 221.318C99.3546 221.318 100.586 221.686 101.578 222.42C102.571 223.155 103.271 224.197 103.68 225.545C104.089 226.894 104.143 228.485 103.839 230.318C103.536 232.167 102.957 233.769 102.101 235.125C101.245 236.473 100.199 237.519 98.9645 238.261C97.7296 238.996 96.3849 239.364 94.9304 239.364C93.8092 239.364 92.9418 239.178 92.3281 238.807C91.7145 238.428 91.2675 238 90.9872 237.523C90.7069 237.038 90.491 236.636 90.3395 236.318H90.1122L88.5668 245.545H85.8622ZM91.0668 230.273C90.8546 231.591 90.8546 232.754 91.0668 233.761C91.2865 234.761 91.7221 235.545 92.3736 236.114C93.0327 236.674 93.9001 236.955 94.9759 236.955C96.0971 236.955 97.0781 236.659 97.919 236.068C98.7675 235.47 99.4645 234.667 100.01 233.659C100.563 232.644 100.946 231.515 101.158 230.273C101.355 229.045 101.347 227.939 101.135 226.955C100.923 225.962 100.491 225.178 99.8395 224.602C99.188 224.019 98.294 223.727 97.1577 223.727C96.0668 223.727 95.1009 224.004 94.2599 224.557C93.4266 225.102 92.7372 225.867 92.1918 226.852C91.6539 227.83 91.2789 228.97 91.0668 230.273ZM113.03 215.727L109.166 239H106.484L110.348 215.727H113.03ZM121.283 239.364C119.677 239.364 118.332 238.981 117.249 238.216C116.165 237.451 115.4 236.379 114.953 235C114.514 233.621 114.442 232.015 114.737 230.182C115.025 228.394 115.597 226.837 116.453 225.511C117.317 224.178 118.389 223.148 119.669 222.42C120.957 221.686 122.374 221.318 123.919 221.318C125.525 221.318 126.866 221.705 127.942 222.477C129.025 223.242 129.79 224.318 130.237 225.705C130.684 227.083 130.76 228.697 130.464 230.545C130.177 232.318 129.597 233.867 128.726 235.193C127.862 236.511 126.79 237.538 125.51 238.273C124.237 239 122.828 239.364 121.283 239.364ZM121.328 236.955C122.555 236.955 123.62 236.64 124.521 236.011C125.43 235.383 126.165 234.553 126.726 233.523C127.294 232.492 127.677 231.379 127.874 230.182C128.055 229.045 128.048 227.989 127.851 227.011C127.654 226.027 127.233 225.235 126.589 224.636C125.946 224.03 125.04 223.727 123.874 223.727C122.646 223.727 121.574 224.045 120.658 224.682C119.749 225.318 119.014 226.155 118.453 227.193C117.893 228.231 117.518 229.348 117.328 230.545C117.146 231.682 117.15 232.739 117.339 233.716C117.536 234.686 117.957 235.47 118.601 236.068C119.252 236.659 120.161 236.955 121.328 236.955ZM138.263 239.409C137.157 239.409 136.187 239.201 135.354 238.784C134.52 238.36 133.903 237.75 133.501 236.955C133.1 236.152 132.99 235.182 133.172 234.045C133.346 233.045 133.683 232.235 134.183 231.614C134.683 230.985 135.289 230.492 136.001 230.136C136.721 229.773 137.494 229.504 138.32 229.33C139.153 229.148 139.982 229.008 140.808 228.909C141.884 228.773 142.759 228.667 143.433 228.591C144.107 228.515 144.615 228.39 144.956 228.216C145.297 228.042 145.505 227.742 145.581 227.318V227.227C145.763 226.114 145.615 225.246 145.138 224.625C144.661 223.996 143.808 223.682 142.581 223.682C141.308 223.682 140.244 223.962 139.388 224.523C138.532 225.083 137.899 225.682 137.49 226.318L135.126 225.409C135.748 224.348 136.49 223.523 137.354 222.932C138.217 222.333 139.123 221.917 140.07 221.682C141.017 221.439 141.929 221.318 142.808 221.318C143.369 221.318 144.001 221.386 144.706 221.523C145.411 221.652 146.07 221.92 146.683 222.33C147.304 222.739 147.77 223.356 148.081 224.182C148.399 225.008 148.445 226.114 148.217 227.5L146.308 239H143.626L144.036 236.636H143.899C143.657 237.015 143.286 237.42 142.786 237.852C142.293 238.284 141.668 238.652 140.911 238.955C140.161 239.258 139.278 239.409 138.263 239.409ZM139.036 237C140.096 237 141.024 236.792 141.82 236.375C142.623 235.958 143.267 235.42 143.751 234.761C144.244 234.102 144.551 233.409 144.672 232.682L145.081 230.227C144.945 230.364 144.676 230.489 144.274 230.602C143.873 230.708 143.418 230.803 142.911 230.886C142.411 230.962 141.922 231.03 141.445 231.091C140.975 231.144 140.596 231.189 140.308 231.227C139.596 231.318 138.918 231.466 138.274 231.67C137.638 231.867 137.1 232.167 136.661 232.568C136.229 232.962 135.96 233.5 135.854 234.182C135.695 235.114 135.918 235.818 136.524 236.295C137.13 236.765 137.967 237 139.036 237ZM157.771 239.364C156.309 239.364 155.082 238.996 154.089 238.261C153.097 237.519 152.396 236.473 151.987 235.125C151.586 233.769 151.536 232.167 151.839 230.318C152.15 228.485 152.73 226.894 153.578 225.545C154.434 224.197 155.483 223.155 156.726 222.42C157.968 221.686 159.324 221.318 160.794 221.318C161.93 221.318 162.798 221.508 163.396 221.886C164.002 222.258 164.442 222.682 164.714 223.159C164.987 223.629 165.196 224.015 165.339 224.318H165.567L166.999 215.727H169.68L165.817 239H163.226L163.68 236.318H163.362C163.112 236.636 162.764 237.038 162.317 237.523C161.87 238 161.279 238.428 160.544 238.807C159.817 239.178 158.893 239.364 157.771 239.364ZM158.43 236.955C159.506 236.955 160.468 236.674 161.317 236.114C162.173 235.545 162.885 234.761 163.453 233.761C164.021 232.754 164.415 231.591 164.635 230.273C164.855 228.97 164.847 227.83 164.612 226.852C164.377 225.867 163.927 225.102 163.26 224.557C162.593 224.004 161.711 223.727 160.612 223.727C159.483 223.727 158.502 224.019 157.669 224.602C156.836 225.178 156.158 225.962 155.635 226.955C155.112 227.939 154.749 229.045 154.544 230.273C154.339 231.515 154.336 232.644 154.533 233.659C154.73 234.667 155.146 235.47 155.783 236.068C156.427 236.659 157.309 236.955 158.43 236.955ZM182.942 227.773L182.533 230.273H172.351L172.76 227.773H182.942ZM184.706 245.545L188.729 221.545H191.32L190.865 224.318H191.183C191.426 224.015 191.759 223.629 192.183 223.159C192.615 222.682 193.195 222.258 193.922 221.886C194.657 221.508 195.592 221.318 196.729 221.318C198.198 221.318 199.429 221.686 200.422 222.42C201.414 223.155 202.115 224.197 202.524 225.545C202.933 226.894 202.986 228.485 202.683 230.318C202.38 232.167 201.801 233.769 200.945 235.125C200.089 236.473 199.043 237.519 197.808 238.261C196.573 238.996 195.229 239.364 193.774 239.364C192.653 239.364 191.786 239.178 191.172 238.807C190.558 238.428 190.111 238 189.831 237.523C189.551 237.038 189.335 236.636 189.183 236.318H188.956L187.411 245.545H184.706ZM189.911 230.273C189.698 231.591 189.698 232.754 189.911 233.761C190.13 234.761 190.566 235.545 191.217 236.114C191.876 236.674 192.744 236.955 193.82 236.955C194.941 236.955 195.922 236.659 196.763 236.068C197.611 235.47 198.308 234.667 198.854 233.659C199.407 232.644 199.789 231.515 200.001 230.273C200.198 229.045 200.191 227.939 199.979 226.955C199.767 225.962 199.335 225.178 198.683 224.602C198.032 224.019 197.138 223.727 196.001 223.727C194.911 223.727 193.945 224.004 193.104 224.557C192.27 225.102 191.581 225.867 191.036 226.852C190.498 227.83 190.123 228.97 189.911 230.273ZM212.601 239.364C210.927 239.364 209.544 238.992 208.453 238.25C207.362 237.5 206.601 236.455 206.169 235.114C205.737 233.765 205.669 232.197 205.964 230.409C206.26 228.621 206.847 227.045 207.726 225.682C208.605 224.311 209.699 223.242 211.01 222.477C212.321 221.705 213.76 221.318 215.328 221.318C216.237 221.318 217.112 221.47 217.953 221.773C218.794 222.076 219.521 222.568 220.135 223.25C220.749 223.924 221.177 224.818 221.419 225.932C221.661 227.045 221.646 228.417 221.374 230.045L221.192 231.182H207.737L208.101 228.864H218.828C219.002 227.879 218.957 227 218.692 226.227C218.434 225.455 217.983 224.845 217.339 224.398C216.703 223.951 215.896 223.727 214.919 223.727C213.911 223.727 212.972 224 212.101 224.545C211.23 225.083 210.502 225.765 209.919 226.591C209.336 227.409 208.972 228.242 208.828 229.091L208.51 231.091C208.283 232.538 208.317 233.689 208.612 234.545C208.915 235.402 209.442 236.019 210.192 236.398C210.942 236.769 211.881 236.955 213.01 236.955C213.73 236.955 214.393 236.856 214.999 236.659C215.605 236.455 216.146 236.152 216.624 235.75C217.101 235.341 217.502 234.833 217.828 234.227L220.283 234.955C219.866 235.833 219.279 236.606 218.521 237.273C217.771 237.932 216.893 238.447 215.885 238.818C214.885 239.182 213.79 239.364 212.601 239.364ZM234.516 221.545L234.152 223.818H225.107L225.47 221.545H234.516ZM228.788 217.364H231.47L228.697 234C228.576 234.758 228.595 235.326 228.754 235.705C228.921 236.076 229.171 236.326 229.504 236.455C229.845 236.576 230.213 236.636 230.607 236.636C230.902 236.636 231.144 236.621 231.334 236.591C231.523 236.553 231.675 236.523 231.788 236.5L231.97 238.909C231.766 238.977 231.489 239.045 231.141 239.114C230.8 239.189 230.379 239.227 229.879 239.227C229.122 239.227 228.41 239.064 227.743 238.739C227.076 238.413 226.565 237.917 226.209 237.25C225.853 236.583 225.758 235.742 225.925 234.727L228.788 217.364Z" fill="white"/>
</svg>
